# xmcd CD database file
#
# Track frame offsets:
#	150
#	16117
#	31259
#	54183
#	72803
#	85392
#	104358
#	119112
#	133568
#	147207
#	161963
#	173701
#
# Disc length: 2440 seconds
#
# Revision: 0
# Processed by: cddbd v1.4PL0 Copyright (c) Steve Scherf et al.
# Submitted via: Feurio! 1.63 - http://www.feurio.com
#
DISCID=9f09860c
DTITLE=A J Croce - Self Titled
DYEAR=1900
DGENRE=blues
TTITLE0=He's Got A Way With Women
TTITLE1=Which Way Steinway
TTITLE2=I Wonder
TTITLE3=How'd We Get So Good At Sayi..
TTITLE4=I Found Faith
TTITLE5=Keep On Lookin'
TTITLE6=She Wouldn't Give Me None
TTITLE7=I Know Better Now
TTITLE8=Back Where I Began
TTITLE9=Smokin' Good Time
TTITLE10=Stuff You Gotta Watch
TTITLE11=If I Could Be With You
EXTD=Year -  1993 Notes: This is Jim Croce's brother.  I classify it to myself 
EXTD=as blues and/or light jazz.\r\nWhatever, it's not the classification, 
EXTD=it's the music.  Still learning LAME, constructive criticism appreciated.
EXTT0=
EXTT1=
EXTT2=
EXTT3=
EXTT4=
EXTT5=
EXTT6=
EXTT7=
EXTT8=
EXTT9=
EXTT10=
EXTT11=
PLAYORDER=
